<svg width="430" height="430" viewBox="0 0 430 430" fill="none" xmlns="http://www.w3.org/2000/svg">
<path d="M226.4 88.5001L365.4 329.3C370.4 338 364.1 348.8 354.1 348.8H76.1003C66.1003 348.8 59.8003 337.9 64.8003 329.3L203.8 88.5001C208.8 79.8001 221.3 79.8001 226.4 88.5001Z" stroke="#121331" stroke-width="12" stroke-miterlimit="10" stroke-linecap="round" stroke-linejoin="round"/>
<path d="M217.8 259H212.4C205 259 198.9 253.2 198.6 245.8L195.8 187.9C195.3 178.5 202.8 170.7 212.2 170.7H218.2C227.6 170.7 235 178.5 234.6 187.9L231.8 245.8C231.2 253.2 225.2 259 217.8 259Z" stroke="#08A88A" stroke-width="12" stroke-miterlimit="10" stroke-linecap="round" stroke-linejoin="round"/>
<path d="M215.1 316.8C223.882 316.8 231 309.681 231 300.9C231 292.119 223.882 285 215.1 285C206.319 285 199.2 292.119 199.2 300.9C199.2 309.681 206.319 316.8 215.1 316.8Z" stroke="#08A88A" stroke-width="12" stroke-miterlimit="10" stroke-linecap="round" stroke-linejoin="round"/>
</svg>
