<svg xmlns="http://www.w3.org/2000/svg"  viewBox="0 0 64 64" width="512px" height="512px"><polygon fill="#fff8ee" points="8.617,9 43.511,6.149 56.447,15.085 56.447,54.404 16,56"/><polygon fill="#8b8e98" points="16,56 7,44 7,9 16,19"/><path fill="#8b8e98" d="M24.963,50c-0.256,0-0.503-0.099-0.689-0.275c-0.198-0.188-0.311-0.451-0.311-0.725 c0-1.85,1.123-2.416,1.792-2.589c0.209-0.054,0.619-0.162,0.986-0.261V28.704h-1.778c-0.552,0-1-0.447-1-1 c0-2.762,1.653-3.297,2.639-3.369c0,0,7.254-0.409,7.273-0.409c0.338,0,0.654,0.171,0.839,0.456l7.768,11.979v-8.896l-1.861-0.155 c-0.519-0.043-0.917-0.476-0.917-0.996c0-1.725,1.528-2.813,2.965-2.961c0,0,6.35-0.354,6.368-0.354 c0.255,0,0.501,0.098,0.687,0.273c0.2,0.188,0.313,0.452,0.313,0.727c0,0.743,0,2.289-1.574,2.798 c-0.102,0.032-0.195,0.062-0.282,0.087v20.64c0,0.367-0.202,0.705-0.525,0.88c-1.45,0.783-2.647,1.133-3.881,1.133 c-1.802,0-2.835-0.609-3.95-2.33c-1.448-2.235-5.129-8.119-7.38-11.727v9.929l1.981,0.412c0.482,0.101,0.82,0.538,0.795,1.029 c-0.043,0.865-0.814,2.554-3.421,2.753c-2.119,0.161-6.74,0.393-6.787,0.396C24.996,50,24.979,50,24.963,50z"/><path fill="#8d6c9f" d="M49.037,24c0,0.81-0.037,1.573-0.882,1.845c-0.739,0.238-0.975,0.25-0.975,0.25v21.429 c-1.274,0.689-2.31,1.013-3.406,1.013c-1.335,0-2.095-0.307-3.111-1.874c-2.159-3.334-9.219-14.677-9.219-14.677v14.236 l2.778,0.579c0,0-0.081,1.621-2.499,1.806C29.593,48.768,24.963,49,24.963,49c0-0.579,0.118-1.381,1.042-1.62 c0.435-0.112,1.736-0.463,1.736-0.463V27.704h-2.778c0-1.273,0.366-2.272,1.713-2.371l7.199-0.406l9.606,14.815V26.546 l-2.778-0.232c0-1.157,1.112-1.868,2.068-1.966L49.037,24 M49.037,22c-0.037,0-0.074,0.001-0.111,0.003l-6.266,0.349 c-0.031,0.002-0.062,0.004-0.093,0.007c-1.873,0.192-3.863,1.644-3.863,3.955c0,1.04,0.797,1.907,1.834,1.993l0.944,0.079v4.594 l-5.928-9.143c-0.37-0.571-1.003-0.912-1.678-0.912c-0.038,0-0.075,0.001-0.113,0.003l-7.199,0.406 c-0.871,0.064-3.6,0.56-3.6,4.368c0,1.105,0.895,2,2,2h0.778v15.678c-0.092,0.024-0.172,0.045-0.235,0.061 c-0.598,0.155-2.543,0.867-2.543,3.557c0,0.548,0.225,1.072,0.622,1.449C23.957,50.804,24.451,51,24.963,51 c0.033,0,0.067-0.001,0.1-0.003c0.19-0.01,4.68-0.235,6.812-0.397c3.303-0.252,4.286-2.53,4.345-3.699 c0.049-0.984-0.625-1.857-1.59-2.058l-1.186-0.247v-5.628c2.068,3.305,4.443,7.088,5.541,8.782c1.3,2.006,2.643,2.787,4.79,2.787 c1.41,0,2.753-0.387,4.357-1.254c0.646-0.349,1.049-1.025,1.049-1.759V27.589c1.856-0.858,1.857-2.891,1.857-3.589 c0-0.55-0.226-1.075-0.626-1.453C50.039,22.195,49.547,22,49.037,22L49.037,22z M49.037,26h0.005H49.037L49.037,26z"/><path fill="#8d6c9f" d="M56.685,13.582L46.306,6.707C44.649,5.546,43.647,5,41.622,5C41.059,5,9.258,7.327,9.258,7.327 C7.157,7.507,6,8.782,6,10.917v32.168c0,1.443,0.517,2.695,1.786,4.325l7.082,8.989C15.874,57.628,16.812,58,18.587,58 c0.224,0,0.46-0.007,0.724-0.019l34.925-2.015C56.347,55.841,58,54.087,58,51.973V16.064C58,15.075,57.513,14.15,56.685,13.582z M15,25.438v27.176c0,0.237-0.3,0.341-0.446,0.155L9.36,46.177C8.228,44.722,8,43.915,8,43.085V12.138 c0-0.11,0.052-0.188,0.153-0.23c0.103-0.042,0.194-0.025,0.272,0.053l5.681,5.604C14.678,18.129,15,18.899,15,19.702V25.438z M14.782,15.421L9.71,10.418c-0.276-0.272-0.203-0.584-0.158-0.706s0.189-0.406,0.576-0.436c0,0,30.754-2.249,31.505-2.277 C43.052,7,43.628,7.272,45.179,8.358l8.832,5.851c0.099,0.066,0.134,0.157,0.103,0.272c-0.03,0.115-0.105,0.177-0.225,0.186 c0,0-34.13,2.269-34.863,2.269c-0.002,0-0.003,0-0.005,0C17.44,16.937,16.446,16.716,14.782,15.421z M56,51.973 c0,1.057-0.827,1.935-1.882,1.997l-34.771,2.006c-0.799-0.022-1.388-0.156-1.762-0.511C17.197,55.097,17,54.513,17,53.729V25.438 v-4.279c0-1.221,0.308-2.059,1.81-2.181l35.435-2.299c0.619-0.053,0.99,0.155,1.194,0.341C55.811,17.361,56,17.944,56,18.754 V51.973z"/><path fill="#8d6c9f" d="M20.855,15.551c-0.523,0-0.963-0.406-0.997-0.936l-0.128-1.996 c-0.035-0.552,0.383-1.027,0.934-1.063c0.551-0.025,1.027,0.383,1.062,0.934l0.128,1.996c0.035,0.552-0.383,1.027-0.934,1.063 C20.898,15.55,20.876,15.551,20.855,15.551z"/><path fill="#8d6c9f" d="M25.595,15.246c-0.523,0-0.963-0.406-0.997-0.936l-0.128-1.996 c-0.035-0.552,0.383-1.027,0.934-1.063c0.55-0.018,1.027,0.383,1.062,0.934l0.128,1.996c0.035,0.552-0.383,1.027-0.934,1.063 C25.638,15.245,25.616,15.246,25.595,15.246z"/><path fill="#8d6c9f" d="M30.334,14.941c-0.523,0-0.963-0.406-0.997-0.936l-0.128-1.996 c-0.035-0.552,0.383-1.027,0.934-1.063c0.549-0.022,1.027,0.383,1.062,0.934l0.128,1.996c0.035,0.552-0.383,1.027-0.934,1.063 C30.378,14.94,30.356,14.941,30.334,14.941z"/><path fill="#8d6c9f" d="M35.074,14.638c-0.523,0-0.963-0.406-0.997-0.936l-0.128-1.996 c-0.035-0.552,0.383-1.027,0.934-1.063c0.548-0.016,1.027,0.383,1.062,0.934l0.128,1.996c0.035,0.552-0.383,1.027-0.934,1.063 C35.118,14.637,35.096,14.638,35.074,14.638z"/><path fill="#8d6c9f" d="M39.813,14.333c-0.523,0-0.963-0.406-0.997-0.937L38.688,11.4 c-0.035-0.551,0.383-1.026,0.934-1.062c0.56-0.02,1.026,0.383,1.062,0.935l0.128,1.996c0.035,0.551-0.383,1.026-0.934,1.062 C39.856,14.332,39.835,14.333,39.813,14.333z"/><path fill="#8d6c9f" d="M44.553,14.028c-0.523,0-0.963-0.406-0.997-0.937l-0.128-1.996 c-0.035-0.551,0.383-1.026,0.934-1.062c0.56-0.024,1.026,0.383,1.062,0.935l0.128,1.996c0.035,0.551-0.383,1.026-0.934,1.062 C44.596,14.027,44.575,14.028,44.553,14.028z"/></svg>