<svg xmlns="http://www.w3.org/2000/svg"  viewBox="0 0 64 64" width="512px" height="512px"><path fill="#e2e9f7" d="M7,51V13c0-3.31,2.69-6,6-6h38c3.31,0,6,2.69,6,6v38c0,3.31-2.69,6-6,6H13C9.69,57,7,54.31,7,51z"/><path fill="#ced9ed" d="M11,57h42c2.209,0,4-1.791,4-4l0,0c0-1.657-1.343-3-3-3H10c-1.657,0-3,1.343-3,3l0,0	C7,55.209,8.791,57,11,57z"/><path fill="#8d6c9f" d="M51,58H13c-3.859,0-7-3.141-7-7V13c0-3.859,3.141-7,7-7h38c3.859,0,7,3.141,7,7v38	C58,54.859,54.859,58,51,58z M13,8c-2.757,0-5,2.243-5,5v38c0,2.757,2.243,5,5,5h38c2.757,0,5-2.243,5-5V13c0-2.757-2.243-5-5-5H13z"/><path fill="#8d6c9f" d="M47,48c-0.552,0-1,0.448-1,1v2c0,0.552,0.448,1,1,1s1-0.448,1-1v-2C48,48.448,47.552,48,47,48z M52,52c0.552,0,1-0.448,1-1v-2c0-0.552-0.448-1-1-1s-1,0.448-1,1v2C51,51.552,51.448,52,52,52z M32,48c-0.552,0-1,0.448-1,1v2	c0,0.552,0.448,1,1,1s1-0.448,1-1v-2C33,48.448,32.552,48,32,48z M27,48c-0.552,0-1,0.448-1,1v2c0,0.552,0.448,1,1,1s1-0.448,1-1v-2	C28,48.448,27.552,48,27,48z M22,48c-0.552,0-1,0.448-1,1v2c0,0.552,0.448,1,1,1s1-0.448,1-1v-2C23,48.448,22.552,48,22,48z M17,48	c-0.552,0-1,0.448-1,1v2c0,0.552,0.448,1,1,1s1-0.448,1-1v-2C18,48.448,17.552,48,17,48z M12,52c0.552,0,1-0.448,1-1v-2	c0-0.552-0.448-1-1-1s-1,0.448-1,1v2C11,51.552,11.448,52,12,52z M42,48c-0.552,0-1,0.448-1,1v2c0,0.552,0.448,1,1,1s1-0.448,1-1v-2	C43,48.448,42.552,48,42,48z M37,48c-0.552,0-1,0.448-1,1v2c0,0.552,0.448,1,1,1s1-0.448,1-1v-2C38,48.448,37.552,48,37,48z"/><polygon fill="#7e8188" points="17,25 20,25 20,27 22,27 22,29 25,29 25,27 27,27 27,25 29,25 29,23 31,23 31,14 33,14 33,12 45,12 45,14 47,14 47,20 39,20 39,23 37,23 37,34 35,34 35,36 32,36 32,38 28,38 28,40 25,40 25,37 23,37 23,35 21,35 21,33 19,33 19,31 17,31"/><path fill="#8d6c9f" d="M27,45h-2c-0.553,0-1-0.447-1-1v-6h-1c-0.553,0-1-0.447-1-1v-1h-1c-0.553,0-1-0.447-1-1v-1h-1	c-0.553,0-1-0.447-1-1v-1h-1c-0.553,0-1-0.447-1-1v-8c0-0.553,0.447-1,1-1s1,0.447,1,1v7h1c0.553,0,1,0.447,1,1v1h1	c0.553,0,1,0.447,1,1v1h1c0.553,0,1,0.447,1,1v1h1c0.553,0,1,0.447,1,1v6h1c0.553,0,1,0.447,1,1S27.553,45,27,45z"/><path fill="#8d6c9f" d="M34,45h-2c-0.553,0-1-0.447-1-1v-8c0-0.553,0.447-1,1-1s1,0.447,1,1v7h1c0.553,0,1,0.447,1,1	S34.553,45,34,45z"/><path fill="#8d6c9f" d="M25,30h-3c-0.553,0-1-0.447-1-1v-1h-1c-0.553,0-1-0.447-1-1v-1h-2c-0.553,0-1-0.447-1-1s0.447-1,1-1	h3c0.553,0,1,0.447,1,1v1h1c0.553,0,1,0.447,1,1v1h1v-1c0-0.553,0.447-1,1-1h1v-1c0-0.553,0.447-1,1-1h1v-1c0-0.553,0.447-1,1-1h1	v-8c0-0.553,0.447-1,1-1h1v-1c0-0.553,0.447-1,1-1h12c0.553,0,1,0.447,1,1v1h1c0.553,0,1,0.447,1,1v6c0,0.553-0.447,1-1,1h-7v1h4	c0.553,0,1,0.447,1,1s-0.447,1-1,1h-5c-0.553,0-1-0.447-1-1v-3c0-0.553,0.447-1,1-1h7v-4h-1c-0.553,0-1-0.447-1-1v-1H34v1	c0,0.553-0.447,1-1,1h-1v8c0,0.553-0.447,1-1,1h-1v1c0,0.553-0.447,1-1,1h-1v1c0,0.553-0.447,1-1,1h-1v1C26,29.553,25.553,30,25,30z"/><path fill="#8d6c9f" d="M40,30c-0.553,0-1-0.447-1-1v-1h-2c-0.553,0-1-0.447-1-1s0.447-1,1-1h3c0.553,0,1,0.447,1,1v2	C41,29.553,40.553,30,40,30z"/><path fill="#8d6c9f" d="M35,37h-3c-0.553,0-1-0.447-1-1s0.447-1,1-1h2v-1c0-0.553,0.447-1,1-1h1V23c0-0.553,0.447-1,1-1h2	c0.553,0,1,0.447,1,1s-0.447,1-1,1h-1v10c0,0.553-0.447,1-1,1h-1v1C36,36.553,35.553,37,35,37z"/><path fill="#8d6c9f" d="M28,41h-2c-0.553,0-1-0.447-1-1s0.447-1,1-1h1v-1c0-0.553,0.447-1,1-1h4c0.553,0,1,0.447,1,1	s-0.447,1-1,1h-3v1C29,40.553,28.553,41,28,41z"/><rect width="2" height="2" x="36" y="15" fill="#fff"/></svg>