<svg xmlns="http://www.w3.org/2000/svg"  viewBox="0 0 48 48" width="420px" height="420px"><path fill="#9fa8da" d="M40.121,44H15.879C13.737,44,12,42.263,12,40.121V15.879C12,13.737,13.737,12,15.879,12h24.242	C42.263,12,44,13.737,44,15.879v24.242C44,42.263,42.263,44,40.121,44z"/><path fill="none" stroke="#18193f" stroke-linecap="round" stroke-linejoin="round" stroke-width="3" d="M40.5,31.5v5	c0,2.209-1.791,4-4,4h-25c-2.209,0-4-1.791-4-4V26"/><path fill="none" stroke="#18193f" stroke-linecap="round" stroke-linejoin="round" stroke-width="3" d="M7.5,18.064V11.5	c0-2.209,1.791-4,4-4h25c2.209,0,4,1.791,4,4v11.33"/><path fill="#18193f" d="M34.257,34H27.82L13.829,14h6.437L34.257,34z M28.587,32.304h2.563L19.499,15.696h-2.563 L28.587,32.304z"/><polygon fill="#18193f" points="15.866,34 23.069,25.656 22.127,24.407 13.823,34"/><polygon fill="#18193f" points="24.45,21.721 25.355,23.01 33.136,14 31.136,14"/></svg>