<?xml version="1.0" encoding="iso-8859-1"?>
<!-- Uploaded to: SVG Repo, www.svgrepo.com, Generator: SVG Repo Mixer Tools -->
<svg height="800px" width="800px" version="1.1" id="Layer_1" xmlns="http://www.w3.org/2000/svg" xmlns:xlink="http://www.w3.org/1999/xlink" 
	 viewBox="0 0 512.001 512.001" xml:space="preserve">
<path style="fill:#EFF2FA;" d="M448.564,487.792c0.017,8.806-7.175,16.025-15.981,16.041l-352.232,0.662
	c-8.806,0.017-16.025-7.175-16.041-15.981L63.438,24.208C63.42,15.402,70.612,8.183,79.418,8.167L431.65,7.505
	c8.806-0.017,16.025,7.175,16.041,15.981L448.564,487.792z"/>
<path style="fill:#C3E678;" d="M220.768,191.879H116.198c-5.941,0-10.757-4.816-10.757-10.757V56.539
	c0-5.941,4.816-10.757,10.757-10.757h104.569c5.941,0,10.757,4.816,10.757,10.757v124.582
	C231.525,187.063,226.709,191.879,220.768,191.879z"/>
<path style="fill:#F0C087;" d="M167.566,56.033c-17.685,0.033-31.994,14.397-31.961,32.081l0.015,8.005
	c0.033,17.685,14.397,31.994,32.081,31.961c17.685-0.033,31.994-14.397,31.961-32.081l-0.015-8.005
	C199.615,70.31,185.251,56,167.566,56.033z"/>
<g>
	<path style="fill:#B4E1FA;" d="M199.825,144.294l-6.794,0.013c-5.837,9.525-14.925,15.776-25.27,15.795
		c-10.344,0.019-19.456-6.197-25.329-15.7l-6.794,0.013c-14.187,0.027-23.918,14.055-23.9,23.799l0.033,17.339
		c0.007,3.672,3.017,6.671,6.689,6.664l98.754-0.185c3.668-0.007,6.637-2.987,6.63-6.655l-0.033-17.373
		C223.796,158.259,214.013,144.267,199.825,144.294z"/>
	<path style="fill:#B4E1FA;" d="M201.499,144.848l-6.794,0.013c-5.837,9.525-14.925,15.776-25.27,15.795
		c-10.344,0.019-19.456-6.197-25.329-15.7l-6.794,0.013c-14.187,0.027-23.918,14.055-23.9,23.799l0.033,17.339
		c0.007,3.672,3.017,6.671,6.689,6.664l98.754-0.186c3.668-0.007,6.637-2.987,6.63-6.655l-0.033-17.372
		C225.47,158.813,215.687,144.821,201.499,144.848z"/>
</g>
<path d="M455.196,23.472C455.172,10.529,444.623,0,431.636,0L79.403,0.662C73.14,0.674,67.244,3.136,62.802,7.595
	s-6.882,10.364-6.87,16.628l0.873,464.305c0.024,12.944,10.573,23.473,23.516,23.473c0.004,0,0.04,0,0.044,0l352.232-0.662
	c12.967-0.024,23.496-10.594,23.472-23.56L455.196,23.472z M73.436,18.188c1.612-1.618,3.741-2.512,5.996-2.517L431.68,15.01
	c4.681,0,8.497,3.809,8.506,8.49l0.377,200.633L71.32,224.826L70.943,24.193C70.937,21.94,71.824,19.806,73.436,18.188z
	 M432.569,496.328L80.337,496.99l-0.016,7.505v-7.505c-4.681,0-8.497-3.81-8.506-8.49l-0.467-248.665l369.244-0.693l0.467,248.664
	C441.068,492.496,437.259,496.319,432.569,496.328z"/>
<path d="M167.641,135.586c0.005,0,0.071,0,0.076,0c10.558-0.02,20.476-4.15,27.927-11.63c7.451-7.479,11.545-17.413,11.525-27.971
	l-0.015-8.005c-0.041-21.753-17.772-39.452-39.6-39.452c-10.558,0.02-20.476,4.15-27.927,11.63
	c-7.451,7.48-11.545,17.414-11.525,27.972l0.015,8.005C128.156,117.888,145.887,135.586,167.641,135.586z M150.258,70.752
	c4.622-4.639,10.774-7.201,17.369-7.213c13.492,0,24.489,10.977,24.515,24.47l0.015,8.005c0.012,6.548-2.526,12.709-7.148,17.348
	c-4.622,4.639-10.774,7.201-17.322,7.213l-0.047,7.505v-7.505c-13.492,0-24.489-10.977-24.515-24.47L143.11,88.1
	C143.098,81.552,145.636,75.39,150.258,70.752z"/>
<path d="M118.449,199.721c0.005,0,0.022,0,0.027,0l98.754-0.186c7.801-0.015,14.135-6.373,14.121-14.175l-0.033-17.372
	c-0.027-14.428-13.773-31.2-31.508-31.2l-6.794,0.013c-2.606,0.005-5.023,1.362-6.384,3.583
	c-4.747,7.747-11.631,12.198-18.92,12.212c-7.24,0-14.127-4.425-18.895-12.141c-1.368-2.213-3.784-3.56-6.384-3.56
	c-0.004,0-0.009,0-0.014,0l-6.794,0.013c-17.711,0.034-31.417,16.862-31.391,31.318l0.033,17.339
	C104.283,193.371,110.644,199.72,118.449,199.721z M135.653,151.919l2.821-0.005c7.495,10.028,17.963,15.694,29.301,15.693
	c11.308-0.021,21.771-5.727,29.243-15.803l2.847-0.005c10.021,0,16.433,10.649,16.444,16.218l0.031,16.511l-97.064,0.183
	l-0.031-16.511C119.234,162.62,125.617,151.938,135.653,151.919z"/>
<path d="M255.639,71.378c0.005,0,0.01,0,0.015,0l88.058-0.165c4.145-0.008,7.499-3.374,7.491-7.519
	c-0.008-4.141-3.366-7.491-7.505-7.491c-0.005,0-0.01,0-0.015,0l-88.058,0.165c-4.145,0.008-7.499,3.374-7.491,7.519
	C248.142,68.027,251.5,71.378,255.639,71.378z"/>
<path d="M279.777,120.366c-0.005,0-0.01,0-0.015,0l-24.016,0.045c-4.145,0.008-7.499,3.374-7.491,7.519
	c0.008,4.141,3.366,7.491,7.505,7.491c0.005,0,0.01,0,0.015,0l24.016-0.045c4.145-0.008,7.499-3.374,7.491-7.519
	C287.273,123.716,283.914,120.366,279.777,120.366z"/>
<path d="M335.798,120.26l-24.016,0.045c-4.145,0.008-7.499,3.374-7.491,7.519c0.008,4.14,3.366,7.491,7.505,7.491
	c0.005,0,0.01,0,0.015,0l24.016-0.045c4.145-0.008,7.499-3.374,7.491-7.519C343.31,123.606,339.971,120.282,335.798,120.26z"/>
<path d="M391.85,120.155c-0.005,0-0.01,0-0.015,0l-24.016,0.045c-4.145,0.008-7.499,3.374-7.491,7.519
	c0.008,4.141,3.366,7.491,7.505,7.491c0.005,0,0.01,0,0.015,0l24.016-0.045c4.145-0.008,7.499-3.374,7.491-7.519
	C399.347,123.505,395.989,120.155,391.85,120.155z"/>
<path d="M248.195,95.909c0.008,4.141,3.366,7.491,7.505,7.491c0.005,0,0.01,0,0.015,0l136.09-0.255
	c4.145-0.008,7.499-3.374,7.491-7.519c-0.008-4.141-3.366-7.491-7.505-7.491c-0.005,0-0.01,0-0.015,0l-136.09,0.255
	C251.541,88.397,248.187,91.764,248.195,95.909z"/>
<path d="M111.936,279.786c0.005,0,0.01,0,0.015,0l16.011-0.03c4.145-0.008,7.499-3.374,7.491-7.519
	c-0.008-4.14-3.366-7.491-7.505-7.491c-0.005,0-0.01,0-0.015,0l-16.011,0.03c-4.145,0.008-7.499,3.374-7.491,7.519
	C104.439,276.435,107.797,279.786,111.936,279.786z"/>
<path d="M167.972,279.681c0.005,0,0.01,0,0.015,0l232.154-0.436c4.145-0.008,7.499-3.374,7.491-7.519
	c-0.008-4.14-3.366-7.491-7.505-7.491c-0.005,0-0.01,0-0.015,0l-232.154,0.436c-4.145,0.008-7.499,3.374-7.491,7.519
	C160.475,276.33,163.834,279.681,167.972,279.681z"/>
<path d="M111.996,311.807c0.005,0,0.01,0,0.015,0l16.011-0.03c4.145-0.008,7.499-3.374,7.491-7.519
	c-0.008-4.14-3.366-7.491-7.505-7.491c-0.005,0-0.01,0-0.015,0l-16.011,0.03c-4.145,0.008-7.499,3.374-7.491,7.519
	C104.499,308.456,107.857,311.807,111.996,311.807z"/>
<path d="M400.186,296.256c-0.005,0-0.01,0-0.015,0l-232.154,0.436c-4.145,0.008-7.499,3.374-7.491,7.519
	c0.008,4.14,3.366,7.491,7.505,7.491c0.005,0,0.01,0,0.015,0l232.154-0.436c4.145-0.008,7.499-3.374,7.491-7.519
	C407.683,299.606,404.324,296.256,400.186,296.256z"/>
<path d="M304.213,344.468c-0.004,0-0.01,0-0.014,0l-192.127,0.361c-4.145,0.008-7.499,3.374-7.491,7.519
	c0.008,4.14,3.366,7.491,7.505,7.491c0.005,0,0.01,0,0.015,0l192.127-0.361c4.145-0.008,7.499-3.374,7.491-7.519
	C311.71,347.818,308.352,344.468,304.213,344.468z"/>
<path d="M272.313,408.571c-0.005,0-0.01,0-0.015,0l-160.106,0.3c-4.145,0.008-7.499,3.374-7.491,7.519
	c0.008,4.141,3.366,7.491,7.505,7.491c0.005,0,0.01,0,0.015,0l160.106-0.3c4.145-0.008,7.499-3.374,7.491-7.519
	C279.809,411.921,276.451,408.571,272.313,408.571z"/>
<path d="M112.146,391.86c0.005,0,0.01,0,0.015,0l128.085-0.241c4.145-0.008,7.499-3.374,7.491-7.519
	c-0.008-4.141-3.366-7.491-7.505-7.491c-0.005,0-0.01,0-0.015,0l-128.085,0.241c-4.145,0.008-7.499,3.374-7.491,7.519
	C104.649,388.51,108.007,391.86,112.146,391.86z"/>
<path d="M200.325,440.728c-0.005,0-0.01,0-0.015,0l-88.058,0.165c-4.145,0.008-7.499,3.374-7.491,7.519
	c0.008,4.141,3.366,7.491,7.505,7.491c0.005,0,0.01,0,0.015,0l88.058-0.165c4.145-0.008,7.499-3.374,7.491-7.519
	C207.822,444.078,204.464,440.728,200.325,440.728z"/>
<path d="M400.458,440.352c-0.005,0-0.01,0-0.015,0l-32.021,0.06c-4.145,0.008-7.499,3.374-7.491,7.519
	c0.008,4.141,3.366,7.491,7.505,7.491c0.005,0,0.01,0,0.015,0l32.021-0.06c4.145-0.008,7.499-3.374,7.491-7.519
	C407.954,443.702,404.595,440.352,400.458,440.352z"/>
<path d="M400.398,408.33c-0.005,0-0.01,0-0.015,0l-16.011,0.03c-4.145,0.008-7.499,3.374-7.491,7.519
	c0.008,4.14,3.366,7.491,7.505,7.491c0.005,0,0.01,0,0.015,0l16.011-0.03c4.145-0.008,7.499-3.374,7.491-7.519
	C407.894,411.681,404.535,408.33,400.398,408.33z"/>
</svg>