<?xml version="1.0" encoding="iso-8859-1"?>
<!-- Uploaded to: SVG Repo, www.svgrepo.com, Generator: SVG Repo Mixer Tools -->
<svg version="1.1" id="Layer_1" xmlns="http://www.w3.org/2000/svg" xmlns:xlink="http://www.w3.org/1999/xlink" 
	 viewBox="0 0 392.663 392.663" xml:space="preserve">
<path style="fill:#194F82;" d="M285.091,152.566L285.091,152.566c-5.236-1.293-10.731,1.487-12.735,6.594l-21.398,53.527
	L229.56,159.16c-2.004-5.042-7.434-7.822-12.671-6.594l0,0c-4.848,1.164-9.632,2.715-14.352,4.396
	c-1.616-3.943-5.56-6.659-10.02-6.659H10.925C4.913,150.303,0,155.152,0,161.228v220.444c0,6.012,4.848,10.925,10.925,10.925
	h181.463c6.012,0,10.925-4.848,10.925-10.925v-80.808h178.424c6.012,0,10.925-4.848,10.925-10.925
	C392.598,224.711,348.38,168.21,285.091,152.566z M21.851,172.154h159.677v198.594H21.851
	C21.851,370.748,21.851,172.154,21.851,172.154z M203.313,279.079V180.17c3.168-1.422,6.4-2.715,9.632-3.814l27.927,69.624
	c3.62,9.115,16.614,9.115,20.234,0l27.927-69.624c45.188,14.998,77.059,55.273,81.261,102.723H203.313z"/>
<rect x="21.851" y="172.154" style="fill:#FFFFFF;" width="159.677" height="198.594"/>
<path style="fill:#FFC10D;" d="M288.97,176.42l-27.927,69.624c-3.62,9.115-16.614,9.115-20.234,0l-27.927-69.624
	c-3.232,1.099-6.465,2.392-9.632,3.814v98.909H370.23C366.028,231.628,334.158,191.418,288.97,176.42z"/>
<path style="fill:#194F82;" d="M250.958,0.065c-37.818,0-68.461,30.772-68.461,68.461s30.772,68.461,68.461,68.461
	s68.461-30.772,68.461-68.461S288.776,0.065,250.958,0.065z M250.958,115.2c-25.729,0-46.675-20.945-46.675-46.675
	s20.945-46.675,46.675-46.675s46.675,20.945,46.675,46.675S276.751,115.2,250.958,115.2z"/>
<g>
	<rect x="43.636" y="194.004" style="fill:#56ACE0;" width="115.976" height="155.022"/>
	<path style="fill:#56ACE0;" d="M250.958,21.851c-25.729,0-46.675,20.945-46.675,46.675s20.945,46.675,46.675,46.675
		s46.675-20.945,46.675-46.675S276.751,21.851,250.958,21.851z"/>
</g>
<g>
	<path style="fill:#194F82;" d="M79.063,240.485c4.202,0,7.887-2.069,11.184-6.206l7.37,8.275
		c-5.689,5.947-11.96,8.986-18.618,8.986c-6.659,0-12.347-2.069-16.937-6.335c-4.655-4.267-6.982-9.762-6.982-16.549
		s2.327-12.347,7.046-16.614c4.655-4.267,10.214-6.4,16.614-6.4c3.168,0,6.4,0.711,9.762,2.004s6.206,3.297,8.663,5.883
		l-6.465,8.404c-1.487-1.681-3.168-3.038-5.236-3.943c-2.069-0.905-4.073-1.422-6.206-1.422c-3.232,0-6.012,1.099-8.404,3.168
		c-2.327,2.133-3.556,5.107-3.556,8.857s1.164,6.723,3.556,8.792C73.18,239.386,75.895,240.485,79.063,240.485z"/>
	<path style="fill:#194F82;" d="M117.915,250.828l-17.648-44.671h12.929l11.119,28.057l11.119-28.057h12.929l-17.713,44.671H117.915
		z"/>
	<path style="fill:#194F82;" d="M133.689,288.84h-64c-6.012,0-10.925-4.848-10.925-10.925c0-6.012,4.848-10.925,10.925-10.925h64
		c6.012,0,10.925,4.848,10.925,10.925C144.549,283.927,139.701,288.84,133.689,288.84z"/>
	<path style="fill:#194F82;" d="M133.689,335.192h-64c-6.012,0-10.925-4.849-10.925-10.925s4.848-10.925,10.925-10.925h64
		c6.012,0,10.925,4.848,10.925,10.925C144.549,330.343,139.701,335.192,133.689,335.192z"/>
</g>
</svg>