<?xml version="1.0" encoding="iso-8859-1"?>
<!-- Uploaded to: SVG Repo, www.svgrepo.com, Generator: SVG Repo Mixer Tools -->
<svg height="800px" width="800px" version="1.1" id="Layer_1" xmlns="http://www.w3.org/2000/svg" xmlns:xlink="http://www.w3.org/1999/xlink" 
	 viewBox="0 0 392.598 392.598" xml:space="preserve">
<path style="fill:#FFFFFF;" d="M326.497,185.406h16.226c-5.301-72.339-63.224-130.133-135.434-135.434v16.291
	c0,6.012-4.848,10.925-10.925,10.925c-6.077,0-10.925-4.848-10.925-10.925V49.907c-72.21,5.301-130.069,63.224-135.434,135.434
	H66.23c6.012,0,10.925,4.848,10.925,10.925c0,6.012-4.848,10.925-10.925,10.925H50.004c5.301,72.275,63.224,130.133,135.434,135.434
	V326.4c0-6.012,4.848-10.925,10.925-10.925c6.012,0,10.925,4.848,10.925,10.925v16.226c72.339-5.301,130.133-63.224,135.434-135.434
	h-16.226c-6.012,0-10.925-4.848-10.925-10.925C315.571,190.319,320.485,185.406,326.497,185.406z"/>
<path style="fill:#56ACE0;" d="M196.363,321.358c-68.913,0-125.026-56.113-125.026-125.026S127.45,71.305,196.363,71.305
	S321.39,127.418,321.39,196.331S265.276,321.358,196.363,321.358z"/>
<path style="fill:#194F82;" d="M381.769,185.406h-17.067c-5.43-84.299-73.051-151.919-157.349-157.349V10.925
	C207.289,4.913,202.44,0,196.363,0c-6.012,0-10.925,4.848-10.925,10.925v17.067c-84.299,5.43-151.919,73.051-157.285,157.349H10.957
	c-6.012,0.065-10.925,4.913-10.925,10.99c0,6.012,4.848,10.925,10.925,10.925h17.067c5.43,84.299,73.051,151.919,157.35,157.349
	v17.067c0,6.012,4.848,10.925,10.925,10.925c6.012,0,10.925-4.848,10.925-10.925v-17.067
	c84.299-5.43,151.919-73.051,157.349-157.349h17.067c6.012,0,10.925-4.848,10.925-10.925
	C392.63,190.319,387.781,185.406,381.769,185.406z M326.497,207.257h16.226c-5.301,72.339-63.224,130.133-135.434,135.434v-16.226
	c0-6.012-4.848-10.925-10.925-10.925c-6.077,0-10.925,4.848-10.925,10.925v16.226c-72.275-5.301-130.133-63.224-135.434-135.434
	H66.23c6.012,0,10.925-4.848,10.925-10.925c0-6.012-4.848-10.925-10.925-10.925H50.004c5.301-72.275,63.224-130.133,135.434-135.434
	v16.291c0,6.012,4.848,10.925,10.925,10.925c6.012,0,10.925-4.848,10.925-10.925V49.907
	c72.339,5.301,130.133,63.224,135.434,135.434h-16.226c-6.012,0-10.925,4.848-10.925,10.925
	C315.571,202.343,320.485,207.257,326.497,207.257z"/>
<path style="fill:#FFFFFF;" d="M196.363,127.354c-9.438,0-17.067,7.628-17.067,17.067s7.628,17.067,17.067,17.067
	s17.067-7.628,17.067-17.067S205.802,127.354,196.363,127.354z"/>
<path style="fill:#194F82;" d="M196.363,105.568c-21.463,0-38.917,17.455-38.917,38.917s17.455,38.917,38.917,38.917
	s38.917-17.455,38.917-38.917S217.826,105.568,196.363,105.568z M196.363,161.552c-9.438,0-17.067-7.628-17.067-17.067
	c0-9.438,7.628-17.067,17.067-17.067s17.067,7.628,17.067,17.067C213.43,153.923,205.802,161.552,196.363,161.552z"/>
<path style="fill:#FFC10D;" d="M196.363,219.022c-27.798,0-51.459,19.911-57.212,46.287h114.36
	C247.822,238.998,224.161,219.022,196.363,219.022z"/>
<path style="fill:#194F82;" d="M195.846,197.172c-50.489,2.133-78.998,40.857-79.774,81.131c-0.065,4.784,3.814,8.792,8.663,8.792
	h140.994c6.077,0,11.055-5.042,10.925-11.119C275.814,232.339,239.483,196.848,195.846,197.172z M139.151,265.309
	c5.689-26.376,29.35-46.287,57.212-46.287s51.459,19.911,57.212,46.287H139.151z"/>
</svg>